<?xml version="1.0" encoding="UTF-8"?>
<svg width="35px" height="45px" viewBox="0 0 35 45" version="1.1" xmlns="http://www.w3.org/2000/svg" xmlns:xlink="http://www.w3.org/1999/xlink">
    <!-- Generator: Sketch 58 (84663) - https://sketch.com -->
    <title>Desktop</title>
    <desc>Created with Sketch.</desc>
    <defs>
        <path d="M0.0466699219,11.1497168 C0.0466699219,17.2139063 5.11198242,22.2572461 11.1552539,22.2562793 L11.1552539,22.2562793 C14.4965039,22.2555762 17.5434961,20.7113379 19.5964453,18.3015527 L19.5964453,18.3015527 C21.2499316,16.3610156 22.258916,13.8592969 22.258916,11.1497168 L22.258916,11.1497168 C22.258916,5.13685547 17.2183008,0.0557226563 11.1723926,0.0439453125 L11.1723926,0.0439453125 C11.1658887,0.0439453125 11.1592969,0.0436816406 11.1528809,0.0436816406 L11.1528809,0.0436816406 C5.14019531,0.0432421875 0.0466699219,5.08464844 0.0466699219,11.1497168 L0.0466699219,11.1497168 Z M14.3779395,2.87912109 C13.9862988,2.37788086 13.5949219,1.94695312 13.232373,1.58519531 L13.232373,1.58519531 C15.1267676,1.996875 16.8183105,2.95804688 18.1308691,4.29389648 L18.1308691,4.29389648 C17.5338281,4.71524414 16.8180469,5.1402832 15.9858105,5.50388672 L15.9858105,5.50388672 C15.4914258,4.4419043 14.9135449,3.56475586 14.3779395,2.87912109 L14.3779395,2.87912109 Z M4.17480469,4.29389648 C5.48727539,2.95804688 7.17890625,1.996875 9.07338867,1.58519531 L9.07338867,1.58519531 C8.71075195,1.94695312 8.319375,2.37788086 7.92764648,2.87912109 L7.92764648,2.87912109 C7.39204102,3.56475586 6.81424805,4.4419043 6.31986328,5.50388672 L6.31986328,5.50388672 C5.48771484,5.1402832 4.7718457,4.71524414 4.17480469,4.29389648 L4.17480469,4.29389648 Z M7.55235352,5.96320312 C7.92421875,5.18625 8.38494141,4.44120117 8.93496094,3.73130859 L8.93496094,3.73130859 C9.48603516,3.02027344 10.0411523,2.46234375 10.4936133,2.05760742 L10.4936133,2.05760742 L10.4936133,6.48580078 C9.41317383,6.42946289 8.43231445,6.23680664 7.55235352,5.96320312 L7.55235352,5.96320312 Z M11.8119727,2.05892578 C12.6566016,2.81663086 13.861582,4.11609375 14.7453223,5.96601562 L14.7453223,5.96601562 C13.8671191,6.23821289 12.8889844,6.42946289 11.8119727,6.48580078 L11.8119727,6.48580078 L11.8119727,2.05892578 Z M16.4825684,6.72609375 C17.4665039,6.2990332 18.3046289,5.79366211 18.9939551,5.2977832 L18.9939551,5.2977832 C20.0925879,6.76625977 20.7882422,8.55219727 20.9179688,10.490625 L20.9179688,10.490625 L17.2073145,10.490625 C17.1410449,9.08332031 16.8667383,7.82674805 16.4825684,6.72609375 L16.4825684,6.72609375 Z M3.31171875,5.2977832 C4.00069336,5.79366211 4.83916992,6.2990332 5.82275391,6.72635742 L5.82275391,6.72635742 C5.43858398,7.82674805 5.16462891,9.08332031 5.09800781,10.490625 L5.09800781,10.490625 L1.38735352,10.490625 C1.51708008,8.55219727 2.21299805,6.76625977 3.31171875,5.2977832 L3.31171875,5.2977832 Z M7.04944336,7.18787109 C8.0728418,7.51579102 9.22166016,7.74580078 10.4936133,7.80547852 L10.4936133,7.80547852 L10.4936133,10.490625 L6.41777344,10.490625 C6.47569336,9.34075195 6.68689453,8.23798828 7.04944336,7.18787109 L7.04944336,7.18787109 Z M11.8119727,7.80547852 C13.0805859,7.74580078 14.2265918,7.51710938 15.2480566,7.19024414 L15.2480566,7.19024414 C15.5872266,8.16802734 15.8240039,9.26771484 15.8875488,10.490625 L15.8875488,10.490625 L11.8119727,10.490625 L11.8119727,7.80547852 Z M16.4825684,15.5735156 C16.8667383,14.473125 17.1410449,13.2166406 17.2073145,11.8089844 L17.2073145,11.8089844 L20.9179688,11.8089844 C20.7885059,13.7476758 20.0925879,15.5336133 18.9939551,17.0020898 L18.9939551,17.0020898 C18.3046289,16.5062988 17.4665039,16.0009277 16.4825684,15.5735156 L16.4825684,15.5735156 Z M11.8119727,14.4943945 L11.8119727,11.8089844 L15.8879883,11.8089844 C15.829541,12.9591211 15.6187793,14.0618848 15.2562305,15.1120898 L15.2562305,15.1120898 C14.2327441,14.7842578 13.0840137,14.5541602 11.8119727,14.4943945 L11.8119727,14.4943945 Z M6.41803711,11.8089844 L10.4936133,11.8089844 L10.4936133,14.4943945 C9.22508789,14.5541602 8.07908203,14.7827637 7.05726562,15.1096289 L7.05726562,15.1096289 C6.7180957,14.1318457 6.48158203,13.0322461 6.41803711,11.8089844 L6.41803711,11.8089844 Z M1.38770508,11.8089844 L5.09835938,11.8089844 C5.16462891,13.2166406 5.43858398,14.473125 5.82310547,15.5735156 L5.82310547,15.5735156 C4.83916992,16.0009277 4.00069336,16.5062988 3.31171875,17.0020898 L3.31171875,17.0020898 C2.21299805,15.5336133 1.51708008,13.7476758 1.38770508,11.8089844 L1.38770508,11.8089844 Z M11.8119727,15.8141602 C12.8924121,15.870498 13.8733594,16.0630664 14.7532324,16.3366699 L14.7532324,16.3366699 C14.3814551,17.1139746 13.9207324,17.8586719 13.3707129,18.5686523 L13.3707129,18.5686523 C12.8196387,19.2796875 12.2644336,19.8375293 11.8119727,20.2423535 L11.8119727,20.2423535 L11.8119727,15.8141602 Z M7.56026367,16.3339453 C8.43820313,16.061748 9.41668945,15.870498 10.4936133,15.8141602 L10.4936133,15.8141602 L10.4936133,20.2409473 C9.6487207,19.4832422 8.44400391,18.1837793 7.56026367,16.3339453 L7.56026367,16.3339453 Z M14.3779395,19.420752 C14.9135449,18.7351172 15.4914258,17.8579688 15.9858105,16.7960742 L15.9858105,16.7960742 C16.8176074,17.1596777 17.5334766,17.5846289 18.1308691,18.0059766 L18.1308691,18.0059766 C16.8183105,19.3418262 15.1267676,20.3031738 13.232373,20.7147656 L13.232373,20.7147656 C13.5949219,20.3529199 13.9862988,19.9220801 14.3779395,19.420752 L14.3779395,19.420752 Z M4.17445313,18.0059766 C4.7718457,17.5846289 5.48771484,17.1596777 6.31951172,16.7960742 L6.31951172,16.7960742 C6.81389648,17.8579688 7.39177734,18.7351172 7.92764648,19.420752 L7.92764648,19.420752 C8.31902344,19.9220801 8.71075195,20.3529199 9.07338867,20.7147656 L9.07338867,20.7147656 C7.17890625,20.3031738 5.48727539,19.3418262 4.17445313,18.0059766 L4.17445313,18.0059766 Z" id="path-1"></path>
        <linearGradient x1="-27.7032926%" y1="127.729185%" x2="142.824407%" y2="-42.8012136%" id="linearGradient-3">
            <stop stop-color="#AF7721" offset="0%"></stop>
            <stop stop-color="#FFDFA1" offset="100%"></stop>
        </linearGradient>
        <path d="M0.667089844,0.0360351562 C0.303134766,0.0360351562 0.00791015625,0.330996094 0.00791015625,0.695214844 L0.00791015625,0.695214844 C0.00791015625,1.05916992 0.303134766,1.35448242 0.667089844,1.35448242 L0.667089844,1.35448242 L15.8374512,1.35448242 C16.2016699,1.35448242 16.4966309,1.05916992 16.4966309,0.695214844 L16.4966309,0.695214844 C16.4966309,0.330996094 16.2016699,0.0360351562 15.8374512,0.0360351562 L15.8374512,0.0360351562 L0.667089844,0.0360351562 Z" id="path-4"></path>
        <linearGradient x1="-14.7045319%" y1="55.173799%" x2="215.023607%" y2="36.8046094%" id="linearGradient-6">
            <stop stop-color="#AF7721" offset="0%"></stop>
            <stop stop-color="#FFDFA1" offset="100%"></stop>
        </linearGradient>
        <path d="M0.0421875,0.695566406 L0.0421875,1.9669043 C0.0421875,2.33077148 0.3375,2.62608398 0.701367188,2.62608398 L0.701367188,2.62608398 C1.06532227,2.62608398 1.36063477,2.33077148 1.36063477,1.9669043 L1.36063477,1.9669043 L1.36063477,0.695566406 C1.36063477,0.331699219 1.06532227,0.0363867187 0.701367188,0.0363867187 L0.701367188,0.0363867187 C0.3375,0.0363867187 0.0421875,0.331699219 0.0421875,0.695566406" id="path-7"></path>
        <linearGradient x1="-364.365274%" y1="863.897075%" x2="380.308269%" y2="-598.792474%" id="linearGradient-9">
            <stop stop-color="#AF7721" offset="0%"></stop>
            <stop stop-color="#FFDFA1" offset="100%"></stop>
        </linearGradient>
        <path d="M0.02671875,0.695566406 L0.02671875,1.9669043 C0.02671875,2.33077148 0.32203125,2.62608398 0.685986328,2.62608398 L0.685986328,2.62608398 C1.05020508,2.62608398 1.34516602,2.33077148 1.34516602,1.9669043 L1.34516602,1.9669043 L1.34516602,0.695566406 C1.34516602,0.331699219 1.05020508,0.0363867187 0.685986328,0.0363867187 L0.685986328,0.0363867187 C0.32203125,0.0363867187 0.02671875,0.331699219 0.02671875,0.695566406" id="path-10"></path>
        <linearGradient x1="-502.440809%" y1="1135.10863%" x2="242.232733%" y2="-327.580924%" id="linearGradient-12">
            <stop stop-color="#AF7721" offset="0%"></stop>
            <stop stop-color="#FFDFA1" offset="100%"></stop>
        </linearGradient>
        <path d="M28.1696484,0 C27.9355078,0 27.6996094,0.0250488281 27.4678418,0.0740917969 L27.4678418,0.0740917969 L0.528046875,5.78944336 C0.227548828,5.84648437 0,6.13239258 0,6.43552734 L0,6.43552734 L0,34.3817578 C0,34.745625 0.2953125,35.0409375 0.659179688,35.0409375 L0.659179688,35.0409375 C1.02313477,35.0409375 1.31835938,34.745625 1.31835938,34.3817578 L1.31835938,34.3817578 L1.31835938,7.09479492 L30.8588379,7.09479492 C32.2974316,7.09479492 33.4674316,8.26514648 33.4674316,9.70365234 L33.4674316,9.70365234 L33.4674316,13.4637012 C33.4674316,13.8280078 33.7626562,14.1229687 34.1266113,14.1229687 L34.1266113,14.1229687 C34.490918,14.1229687 34.785791,13.8280078 34.785791,13.4637012 L34.785791,13.4637012 L34.785791,9.70365234 C34.785791,7.76285156 33.3706641,6.14750977 31.5180176,5.83268555 L31.5180176,5.83268555 L31.5180176,3.35496094 C31.5180176,1.50512695 30.0160547,0 28.1696484,0 Z M27.7414453,1.36371094 C28.9894922,1.09898437 30.1997461,2.07773437 30.1997461,3.35496094 L30.1997461,3.35496094 L30.1997461,5.77634766 L6.94230469,5.77634766 L27.7414453,1.36371094 Z" id="path-13"></path>
        <linearGradient x1="-20.7723504%" y1="99.6914001%" x2="86.5404693%" y2="-8.40853665%" id="linearGradient-15">
            <stop stop-color="#AF7721" offset="0%"></stop>
            <stop stop-color="#FFDFA1" offset="100%"></stop>
        </linearGradient>
        <path d="M33.4674316,0.719648437 L33.4674316,25.6919238 C33.4674316,27.1304297 32.2974316,28.3008691 30.8588379,28.3008691 L30.8588379,28.3008691 L3.53583984,28.3008691 C2.31292969,28.3008691 1.31835938,27.3062109 1.31835938,26.0836523 L1.31835938,26.0836523 L1.31835938,21.6376172 C1.31835938,21.2736621 1.02339844,20.9784375 0.659179688,20.9784375 L0.659179688,20.9784375 C0.2953125,20.9784375 0,21.2736621 0,21.6376172 L0,21.6376172 L0,26.0836523 C0,28.0329785 1.58616211,29.6191406 3.53583984,29.6191406 L3.53583984,29.6191406 L30.8588379,29.6191406 C33.0241992,29.6191406 34.785791,27.8575488 34.785791,25.6919238 L34.785791,25.6919238 L34.785791,0.719648437 C34.785791,0.355693359 34.490918,0.06046875 34.1266113,0.06046875 L34.1266113,0.06046875 C33.7626562,0.06046875 33.4674316,0.355693359 33.4674316,0.719648437" id="path-16"></path>
        <linearGradient x1="20.9756139%" y1="97.870727%" x2="129.868441%" y2="5.34078153%" id="linearGradient-18">
            <stop stop-color="#AF7721" offset="0%"></stop>
            <stop stop-color="#FFDFA1" offset="100%"></stop>
        </linearGradient>
    </defs>
    <g id="Page-1" stroke="none" stroke-width="1" fill="none" fill-rule="evenodd">
        <g id="Desktop" transform="translate(-226.000000, -242.000000)">
            <rect id="Rectangle" stroke="#58666E" opacity="0.27" x="120" y="216" width="247" height="196"></rect>
            <g id="Group-19" transform="translate(226.000000, 242.000000)">
                <g id="Group-3" transform="translate(6.240234, 14.238281)">
                    <mask id="mask-2" fill="white">
                        <use xlink:href="#path-1"></use>
                    </mask>
                    <g id="Clip-2"></g>
                    <path d="M0.0466699219,11.1497168 C0.0466699219,17.2139063 5.11198242,22.2572461 11.1552539,22.2562793 L11.1552539,22.2562793 C14.4965039,22.2555762 17.5434961,20.7113379 19.5964453,18.3015527 L19.5964453,18.3015527 C21.2499316,16.3610156 22.258916,13.8592969 22.258916,11.1497168 L22.258916,11.1497168 C22.258916,5.13685547 17.2183008,0.0557226563 11.1723926,0.0439453125 L11.1723926,0.0439453125 C11.1658887,0.0439453125 11.1592969,0.0436816406 11.1528809,0.0436816406 L11.1528809,0.0436816406 C5.14019531,0.0432421875 0.0466699219,5.08464844 0.0466699219,11.1497168 L0.0466699219,11.1497168 Z M14.3779395,2.87912109 C13.9862988,2.37788086 13.5949219,1.94695312 13.232373,1.58519531 L13.232373,1.58519531 C15.1267676,1.996875 16.8183105,2.95804688 18.1308691,4.29389648 L18.1308691,4.29389648 C17.5338281,4.71524414 16.8180469,5.1402832 15.9858105,5.50388672 L15.9858105,5.50388672 C15.4914258,4.4419043 14.9135449,3.56475586 14.3779395,2.87912109 L14.3779395,2.87912109 Z M4.17480469,4.29389648 C5.48727539,2.95804688 7.17890625,1.996875 9.07338867,1.58519531 L9.07338867,1.58519531 C8.71075195,1.94695312 8.319375,2.37788086 7.92764648,2.87912109 L7.92764648,2.87912109 C7.39204102,3.56475586 6.81424805,4.4419043 6.31986328,5.50388672 L6.31986328,5.50388672 C5.48771484,5.1402832 4.7718457,4.71524414 4.17480469,4.29389648 L4.17480469,4.29389648 Z M7.55235352,5.96320312 C7.92421875,5.18625 8.38494141,4.44120117 8.93496094,3.73130859 L8.93496094,3.73130859 C9.48603516,3.02027344 10.0411523,2.46234375 10.4936133,2.05760742 L10.4936133,2.05760742 L10.4936133,6.48580078 C9.41317383,6.42946289 8.43231445,6.23680664 7.55235352,5.96320312 L7.55235352,5.96320312 Z M11.8119727,2.05892578 C12.6566016,2.81663086 13.861582,4.11609375 14.7453223,5.96601562 L14.7453223,5.96601562 C13.8671191,6.23821289 12.8889844,6.42946289 11.8119727,6.48580078 L11.8119727,6.48580078 L11.8119727,2.05892578 Z M16.4825684,6.72609375 C17.4665039,6.2990332 18.3046289,5.79366211 18.9939551,5.2977832 L18.9939551,5.2977832 C20.0925879,6.76625977 20.7882422,8.55219727 20.9179688,10.490625 L20.9179688,10.490625 L17.2073145,10.490625 C17.1410449,9.08332031 16.8667383,7.82674805 16.4825684,6.72609375 L16.4825684,6.72609375 Z M3.31171875,5.2977832 C4.00069336,5.79366211 4.83916992,6.2990332 5.82275391,6.72635742 L5.82275391,6.72635742 C5.43858398,7.82674805 5.16462891,9.08332031 5.09800781,10.490625 L5.09800781,10.490625 L1.38735352,10.490625 C1.51708008,8.55219727 2.21299805,6.76625977 3.31171875,5.2977832 L3.31171875,5.2977832 Z M7.04944336,7.18787109 C8.0728418,7.51579102 9.22166016,7.74580078 10.4936133,7.80547852 L10.4936133,7.80547852 L10.4936133,10.490625 L6.41777344,10.490625 C6.47569336,9.34075195 6.68689453,8.23798828 7.04944336,7.18787109 L7.04944336,7.18787109 Z M11.8119727,7.80547852 C13.0805859,7.74580078 14.2265918,7.51710938 15.2480566,7.19024414 L15.2480566,7.19024414 C15.5872266,8.16802734 15.8240039,9.26771484 15.8875488,10.490625 L15.8875488,10.490625 L11.8119727,10.490625 L11.8119727,7.80547852 Z M16.4825684,15.5735156 C16.8667383,14.473125 17.1410449,13.2166406 17.2073145,11.8089844 L17.2073145,11.8089844 L20.9179688,11.8089844 C20.7885059,13.7476758 20.0925879,15.5336133 18.9939551,17.0020898 L18.9939551,17.0020898 C18.3046289,16.5062988 17.4665039,16.0009277 16.4825684,15.5735156 L16.4825684,15.5735156 Z M11.8119727,14.4943945 L11.8119727,11.8089844 L15.8879883,11.8089844 C15.829541,12.9591211 15.6187793,14.0618848 15.2562305,15.1120898 L15.2562305,15.1120898 C14.2327441,14.7842578 13.0840137,14.5541602 11.8119727,14.4943945 L11.8119727,14.4943945 Z M6.41803711,11.8089844 L10.4936133,11.8089844 L10.4936133,14.4943945 C9.22508789,14.5541602 8.07908203,14.7827637 7.05726562,15.1096289 L7.05726562,15.1096289 C6.7180957,14.1318457 6.48158203,13.0322461 6.41803711,11.8089844 L6.41803711,11.8089844 Z M1.38770508,11.8089844 L5.09835938,11.8089844 C5.16462891,13.2166406 5.43858398,14.473125 5.82310547,15.5735156 L5.82310547,15.5735156 C4.83916992,16.0009277 4.00069336,16.5062988 3.31171875,17.0020898 L3.31171875,17.0020898 C2.21299805,15.5336133 1.51708008,13.7476758 1.38770508,11.8089844 L1.38770508,11.8089844 Z M11.8119727,15.8141602 C12.8924121,15.870498 13.8733594,16.0630664 14.7532324,16.3366699 L14.7532324,16.3366699 C14.3814551,17.1139746 13.9207324,17.8586719 13.3707129,18.5686523 L13.3707129,18.5686523 C12.8196387,19.2796875 12.2644336,19.8375293 11.8119727,20.2423535 L11.8119727,20.2423535 L11.8119727,15.8141602 Z M7.56026367,16.3339453 C8.43820313,16.061748 9.41668945,15.870498 10.4936133,15.8141602 L10.4936133,15.8141602 L10.4936133,20.2409473 C9.6487207,19.4832422 8.44400391,18.1837793 7.56026367,16.3339453 L7.56026367,16.3339453 Z M14.3779395,19.420752 C14.9135449,18.7351172 15.4914258,17.8579688 15.9858105,16.7960742 L15.9858105,16.7960742 C16.8176074,17.1596777 17.5334766,17.5846289 18.1308691,18.0059766 L18.1308691,18.0059766 C16.8183105,19.3418262 15.1267676,20.3031738 13.232373,20.7147656 L13.232373,20.7147656 C13.5949219,20.3529199 13.9862988,19.9220801 14.3779395,19.420752 L14.3779395,19.420752 Z M4.17445313,18.0059766 C4.7718457,17.5846289 5.48771484,17.1596777 6.31951172,16.7960742 L6.31951172,16.7960742 C6.81389648,17.8579688 7.39177734,18.7351172 7.92764648,19.420752 L7.92764648,19.420752 C8.31902344,19.9220801 8.71075195,20.3529199 9.07338867,20.7147656 L9.07338867,20.7147656 C7.17890625,20.3031738 5.48727539,19.3418262 4.17445313,18.0059766 L4.17445313,18.0059766 Z" id="Fill-1" fill="url(#linearGradient-3)" mask="url(#mask-2)"></path>
                </g>
                <g id="Group-6" transform="translate(9.140625, 37.880859)">
                    <mask id="mask-5" fill="white">
                        <use xlink:href="#path-4"></use>
                    </mask>
                    <g id="Clip-5"></g>
                    <path d="M0.667089844,0.0360351562 C0.303134766,0.0360351562 0.00791015625,0.330996094 0.00791015625,0.695214844 L0.00791015625,0.695214844 C0.00791015625,1.05916992 0.303134766,1.35448242 0.667089844,1.35448242 L0.667089844,1.35448242 L15.8374512,1.35448242 C16.2016699,1.35448242 16.4966309,1.05916992 16.4966309,0.695214844 L16.4966309,0.695214844 C16.4966309,0.330996094 16.2016699,0.0360351562 15.8374512,0.0360351562 L15.8374512,0.0360351562 L0.667089844,0.0360351562 Z" id="Fill-4" fill="url(#linearGradient-6)" mask="url(#mask-5)"></path>
                </g>
                <g id="Group-9" transform="translate(9.667969, 9.404297)">
                    <mask id="mask-8" fill="white">
                        <use xlink:href="#path-7"></use>
                    </mask>
                    <g id="Clip-8"></g>
                    <path d="M0.0421875,0.695566406 L0.0421875,1.9669043 C0.0421875,2.33077148 0.3375,2.62608398 0.701367188,2.62608398 L0.701367188,2.62608398 C1.06532227,2.62608398 1.36063477,2.33077148 1.36063477,1.9669043 L1.36063477,1.9669043 L1.36063477,0.695566406 C1.36063477,0.331699219 1.06532227,0.0363867187 0.701367188,0.0363867187 L0.701367188,0.0363867187 C0.3375,0.0363867187 0.0421875,0.331699219 0.0421875,0.695566406" id="Fill-7" fill="url(#linearGradient-9)" mask="url(#mask-8)"></path>
                </g>
                <g id="Group-12" transform="translate(23.730469, 9.404297)">
                    <mask id="mask-11" fill="white">
                        <use xlink:href="#path-10"></use>
                    </mask>
                    <g id="Clip-11"></g>
                    <path d="M0.02671875,0.695566406 L0.02671875,1.9669043 C0.02671875,2.33077148 0.32203125,2.62608398 0.685986328,2.62608398 L0.685986328,2.62608398 C1.05020508,2.62608398 1.34516602,2.33077148 1.34516602,1.9669043 L1.34516602,1.9669043 L1.34516602,0.695566406 C1.34516602,0.331699219 1.05020508,0.0363867187 0.685986328,0.0363867187 L0.685986328,0.0363867187 C0.32203125,0.0363867187 0.02671875,0.331699219 0.02671875,0.695566406" id="Fill-10" fill="url(#linearGradient-12)" mask="url(#mask-11)"></path>
                </g>
                <g id="Group-15">
                    <mask id="mask-14" fill="white">
                        <use xlink:href="#path-13"></use>
                    </mask>
                    <g id="Clip-14"></g>
                    <path d="M28.1696484,0 C27.9355078,0 27.6996094,0.0250488281 27.4678418,0.0740917969 L27.4678418,0.0740917969 L0.528046875,5.78944336 C0.227548828,5.84648437 0,6.13239258 0,6.43552734 L0,6.43552734 L0,34.3817578 C0,34.745625 0.2953125,35.0409375 0.659179688,35.0409375 L0.659179688,35.0409375 C1.02313477,35.0409375 1.31835938,34.745625 1.31835938,34.3817578 L1.31835938,34.3817578 L1.31835938,7.09479492 L30.8588379,7.09479492 C32.2974316,7.09479492 33.4674316,8.26514648 33.4674316,9.70365234 L33.4674316,9.70365234 L33.4674316,13.4637012 C33.4674316,13.8280078 33.7626562,14.1229687 34.1266113,14.1229687 L34.1266113,14.1229687 C34.490918,14.1229687 34.785791,13.8280078 34.785791,13.4637012 L34.785791,13.4637012 L34.785791,9.70365234 C34.785791,7.76285156 33.3706641,6.14750977 31.5180176,5.83268555 L31.5180176,5.83268555 L31.5180176,3.35496094 C31.5180176,1.50512695 30.0160547,0 28.1696484,0 Z M27.7414453,1.36371094 C28.9894922,1.09898437 30.1997461,2.07773437 30.1997461,3.35496094 L30.1997461,3.35496094 L30.1997461,5.77634766 L6.94230469,5.77634766 L27.7414453,1.36371094 Z" id="Fill-13" fill="url(#linearGradient-15)" mask="url(#mask-14)"></path>
                </g>
                <g id="Group-18" transform="translate(0.000000, 15.380859)">
                    <mask id="mask-17" fill="white">
                        <use xlink:href="#path-16"></use>
                    </mask>
                    <g id="Clip-17"></g>
                    <path d="M33.4674316,0.719648437 L33.4674316,25.6919238 C33.4674316,27.1304297 32.2974316,28.3008691 30.8588379,28.3008691 L30.8588379,28.3008691 L3.53583984,28.3008691 C2.31292969,28.3008691 1.31835938,27.3062109 1.31835938,26.0836523 L1.31835938,26.0836523 L1.31835938,21.6376172 C1.31835938,21.2736621 1.02339844,20.9784375 0.659179688,20.9784375 L0.659179688,20.9784375 C0.2953125,20.9784375 0,21.2736621 0,21.6376172 L0,21.6376172 L0,26.0836523 C0,28.0329785 1.58616211,29.6191406 3.53583984,29.6191406 L3.53583984,29.6191406 L30.8588379,29.6191406 C33.0241992,29.6191406 34.785791,27.8575488 34.785791,25.6919238 L34.785791,25.6919238 L34.785791,0.719648437 C34.785791,0.355693359 34.490918,0.06046875 34.1266113,0.06046875 L34.1266113,0.06046875 C33.7626562,0.06046875 33.4674316,0.355693359 33.4674316,0.719648437" id="Fill-16" fill="url(#linearGradient-18)" mask="url(#mask-17)"></path>
                </g>
            </g>
        </g>
    </g>
</svg>