<?xml version="1.0" encoding="UTF-8"?><svg xmlns="http://www.w3.org/2000/svg" xmlns:xlink="http://www.w3.org/1999/xlink" height="865.3" preserveAspectRatio="xMidYMid meet" version="1.0" viewBox="-5.2 -2.6 941.0 865.3" width="941.0" zoomAndPan="magnify"><g id="change1_1"><path d="M413,415.6c8.7-8.2,20.7-13.6,35.9-16.2v96c-15.8-5.1-28-11.5-36.4-19.2c-8.4-7.8-12.6-18-12.6-30.7 C400,433.8,404.3,423.8,413,415.6z"/><path d="M527.1,574.1c7.4,8.1,11.3,18.1,11.6,30.2c0,10.8-4.1,20.1-12.4,28c-8.2,7.9-19,13.6-32.3,17.1v-95.5 C508.6,559.3,519.7,566,527.1,574.1z"/><path d="M465.3,123.2L126.6,376.5v449.1c0,20.5,16.6,37.1,37.1,37.1h603.1c20.5,0,37.1-16.6,37.1-37.1V376.5L465.3,123.2z M559,662.7c-17,16.5-38.6,27.1-64.9,31.8v38.5c0,6.7-2.1,12.1-6.4,16.4c-4.3,4.3-9.7,6.4-16.4,6.4c-6.3,0-11.6-2.1-15.9-6.4 c-4.3-4.3-6.4-9.7-6.4-16.4v-37.5c-18.4-1.6-35-5.5-49.9-11.9c-14.9-6.3-29.2-15.8-42.8-28.5c-6.7-5.7-10-12.2-10-19.5 c0-5.7,2.2-10.8,6.7-15.4c4.4-4.6,9.7-6.9,15.7-6.9c5.4,0,10,1.7,13.8,5.2c10.1,9.5,20.6,17,31.4,22.3c10.8,5.4,22.5,9,35.2,10.9 V542c-30.4-7-53.7-18-69.9-33c-16.2-15-24.2-35.6-24.2-61.5c0-25,8.6-45.7,25.9-62c17.3-16.3,40-26.2,68.2-29.7V331 c0-6.7,2.2-12.1,6.7-16.4c4.4-4.3,10-6.4,16.6-6.4c6.3,0,11.6,2.1,15.7,6.4c4.1,4.3,6.2,9.7,6.2,16.4v25.2 c14.9,2.2,28.7,6.2,41.3,11.9c12.7,5.7,23.3,12.7,31.8,20.9c7.3,6.3,10.9,13.2,10.9,20.4c0,5.7-2.1,10.8-6.4,15.2 c-4.3,4.4-9.4,6.7-15.4,6.7c-4.4,0-8.1-1.3-10.9-3.8c-5.7-5.7-13.2-10.9-22.3-15.7c-9.2-4.8-18.8-8.2-29-10.5v105.5 c30.4,7.9,53.1,18.9,68,33c14.9,14.1,22.3,34.9,22.3,62.5C584.4,626.1,575.9,646.3,559,662.7z"/><path d="M914.9,326.6l-145.7-109V60.8c0-9.5-7.7-17.3-17.3-17.3h-72c-9.5,0-17.3,7.7-17.3,17.3v77.1L488.8,7.8 c-13.9-10.4-33-10.4-46.9,0L15.7,326.6c-17.3,13-20.9,37.5-7.9,54.8c13,17.3,37.5,20.9,54.8,7.9L465.3,88L868,389.3 c7,5.3,15.3,7.8,23.4,7.8c11.9,0,23.7-5.4,31.4-15.7C935.8,364.1,932.3,339.5,914.9,326.6z"/></g></svg>