<?xml version="1.0" encoding="UTF-8"?><svg xmlns="http://www.w3.org/2000/svg" xmlns:xlink="http://www.w3.org/1999/xlink" data-name="Layer 1" height="62.1" preserveAspectRatio="xMidYMid meet" version="1.0" viewBox="3.0 2.9 62.3 62.1" width="62.3" zoomAndPan="magnify"><g id="change1_1"><path d="M45.49,65H7.9A4.88,4.88,0,0,1,3,60.13V7.87A4.88,4.88,0,0,1,7.9,3h30a1,1,0,0,1,.7.29L50.07,14.81a1,1,0,0,1,.29.71V33.39a1,1,0,0,1-2,0V15.93L37.43,5H7.9A2.88,2.88,0,0,0,5,7.87V60.13A2.88,2.88,0,0,0,7.9,63H45.49a2.88,2.88,0,0,0,2.87-2.87V45.45a1,1,0,0,1,2,0V60.13A4.88,4.88,0,0,1,45.49,65Z"/></g><g id="change1_2"><path d="M49.36,16.53H39.79a2.94,2.94,0,0,1-2.94-2.94V4a1,1,0,0,1,.62-.93,1,1,0,0,1,1.09.22L50.07,14.82a1,1,0,0,1-.71,1.71ZM38.85,6.42v7.17a.94.94,0,0,0,.94.94H47Z"/></g><g id="change1_3"><path d="M17.27,59.2H9.83a1,1,0,0,1-1-1V50.76a1,1,0,0,1,1-1h7.44a1,1,0,0,1,1,1V58.2A1,1,0,0,1,17.27,59.2Zm-6.44-2h5.44V51.76H10.83Z"/></g><g id="change1_4"><path d="M17.27,43.67H9.83a1,1,0,0,1-1-1V35.23a1,1,0,0,1,1-1h7.44a1,1,0,0,1,1,1v7.44A1,1,0,0,1,17.27,43.67Zm-6.44-2h5.44V36.23H10.83Z"/></g><g id="change1_5"><path d="M17.27,28.14H9.83a1,1,0,0,1-1-1V19.7a1,1,0,0,1,1-1h7.44a1,1,0,0,1,1,1v7.44A1,1,0,0,1,17.27,28.14Zm-6.44-2h5.44V20.7H10.83Z"/></g><g id="change1_6"><path d="M33.69,21.89H23.07a1,1,0,0,1,0-2H33.69a1,1,0,0,1,0,2Z"/></g><g id="change1_7"><path d="M43.61,27H23.07a1,1,0,0,1,0-2H43.61a1,1,0,0,1,0,2Z"/></g><g id="change1_8"><path d="M33.69,37.42H23.07a1,1,0,0,1,0-2H33.69a1,1,0,0,1,0,2Z"/></g><g id="change1_9"><path d="M43,42.48H23.07a1,1,0,0,1,0-2H43a1,1,0,0,1,0,2Z"/></g><g id="change1_10"><path d="M33.69,53H23.07a1,1,0,0,1,0-2H33.69a1,1,0,0,1,0,2Z"/></g><g id="change1_11"><path d="M43.61,58H23.07a1,1,0,0,1,0-2H43.61a1,1,0,0,1,0,2Z"/></g><g id="change1_12"><path d="M25.64,12.85H9.83a1,1,0,0,1,0-2H25.64a1,1,0,0,1,0,2Z"/></g><g id="change1_13"><path d="M44,53.32a1,1,0,0,1-.61-.22l-5.86-4.62a1,1,0,0,1-.16-1.4L52,28.49a1,1,0,0,1,.66-.38,1,1,0,0,1,.74.21l5.85,4.62a1,1,0,0,1,.17,1.4L44.74,52.93a1,1,0,0,1-.67.38ZM39.5,47.53l4.29,3.38,13.39-17L52.9,30.51Z"/></g><g id="change1_14"><path d="M35.52,58a1,1,0,0,1-.62-.22,1,1,0,0,1-.34-1l2.58-9.31a1,1,0,0,1,.65-.68,1,1,0,0,1,.93.16l5.86,4.62a1,1,0,0,1,.38.87,1,1,0,0,1-.52.79L36,57.88A1,1,0,0,1,35.52,58Zm3.14-8.59L37.12,55l5-2.8Z"/></g><g id="change1_15"><path d="M60.84,31.87a1.05,1.05,0,0,1-.62-.21L54.36,27a1,1,0,0,1-.17-1.41L57.06,22a2.22,2.22,0,0,1,1.5-.84,2.25,2.25,0,0,1,1.66.47l3.89,3.07a2.26,2.26,0,0,1,.38,3.16l-2.87,3.64a1,1,0,0,1-.66.37Zm-4.46-5.79,4.29,3.38,2.24-2.85h0a.25.25,0,0,0-.05-.35L59,23.19a.25.25,0,0,0-.18-.06.26.26,0,0,0-.17.1Z"/></g><g id="change1_16"><path d="M58.59,34.73a1,1,0,0,1-.62-.22l-5.86-4.62a1,1,0,0,1-.16-1.4l2.24-2.86a1,1,0,0,1,.67-.37.94.94,0,0,1,.74.21l5.86,4.61a1,1,0,0,1,.16,1.41l-2.24,2.85a1,1,0,0,1-.67.38Zm-4.45-5.79,4.28,3.38,1-1.28-4.28-3.38Z"/></g></svg>