<?xml version="1.0" encoding="UTF-8"?><svg xmlns="http://www.w3.org/2000/svg" xmlns:xlink="http://www.w3.org/1999/xlink" height="114.0" preserveAspectRatio="xMidYMid meet" version="1.0" viewBox="-0.1 7.0 128.2 114.0" width="128.2" zoomAndPan="magnify"><g id="change1_1"><path d="M126,117h-21v-9.2c4-0.9,7-4.5,7-8.8c0-4.3-6.2-12.6-7.4-14.2c-0.8-1-2.4-1-3.2,0C100.2,86.4,94,94.7,94,99 c0,4.3,3,7.9,7,8.8v9.2H87v-6h10v-0.5c-1.6-0.9-3.1-2.1-4.2-3.5H87V83h6c0.8,0,1.5-0.4,1.8-1.1c0.3-0.7,0.3-1.5-0.2-2.1L89.4,73H119 v34h-5.8c-1.1,1.5-2.6,2.7-4.2,3.5v0.5h12c1.1,0,2-0.9,2-2V73h3c0.7,0,1.3-0.4,1.7-0.9c0.4-0.6,0.4-1.3,0.1-1.9l-10-20 c-0.3-0.7-1-1.1-1.8-1.1H97.5V35h6.4c2.2,0,4-1.8,4-4v-4c0-2.1-1.7-3.8-3.8-4L94.6,7.9c-0.4-0.6-1-0.9-1.7-0.9H35.3 c-0.7,0-1.3,0.3-1.7,0.9L23.9,23h0c-2.2,0-4,1.8-4,4v4c0,2.2,1.8,4,4,4H29v14H12c-0.8,0-1.5,0.4-1.8,1.1l-10,20 c-0.3,0.6-0.3,1.4,0.1,1.9C0.7,72.6,1.3,73,2,73h3v36c0,1.1,0.9,2,2,2h10v-0.5c-1.6-0.9-3.1-2.1-4.2-3.5H9V73h29.6l-5.2,6.8 c-0.5,0.6-0.5,1.4-0.2,2.1c0.3,0.7,1,1.1,1.8,1.1h6v24h-7.8c-1.1,1.5-2.6,2.7-4.2,3.5v0.5h12v6H25v-9.2c4-0.9,7-4.5,7-8.8 c0-4.3-6.2-12.6-7.4-14.2c-0.8-1-2.4-1-3.2,0C20.2,86.4,14,94.7,14,99c0,4.3,3,7.9,7,8.8v9.2H2c-1.1,0-2,0.9-2,2s0.9,2,2,2h124 c1.1,0,2-0.9,2-2S127.1,117,126,117z M23,98c-1.1,0-2,0.9-2,2v3.6c-1.8-0.8-3-2.5-3-4.6c0-1.8,2.6-6.1,5-9.6c2.4,3.5,5,7.8,5,9.6 c0,2-1.2,3.8-3,4.6V100C25,98.9,24.1,98,23,98z M114.8,53l8,16H86.4L74.1,53H114.8z M71.1,49l-5.5-7.2c-0.8-1-2.4-1-3.2,0L56.9,49 H33V35h60.5v14H71.1z M36.4,11h55.4l7.5,12H28.7L36.4,11z M23.9,31v-4H25h78h0.9l0,4H23.9z M5.2,69l8-16h40.6L41.6,69H5.2z M71,117 H57v-17h14V117z M83,117h-8V98c0-1.1-0.9-2-2-2H55c-1.1,0-2,0.9-2,2v19h-8V83h38V117z M39,79l25-32.7L89,79H39z M103,98 c-1.1,0-2,0.9-2,2v3.6c-1.8-0.8-3-2.5-3-4.6c0-1.8,2.6-6.1,5-9.6c2.4,3.5,5,7.8,5,9.6c0,2-1.2,3.8-3,4.6V100 C105,98.9,104.1,98,103,98z" fill="inherit"/></g></svg>